<svg width="119" height="28" viewBox="0 0 119 28" fill="none" xmlns="http://www.w3.org/2000/svg">
<g clip-path="url(#clip0_4570_2513)">
<path d="M102.276 9.22471C101.417 8.38306 100.377 7.74827 99.2358 7.36853C98.0946 6.98879 96.8818 6.87409 95.6897 7.03316C94.4975 7.19222 93.3573 7.62087 92.3555 8.28653C91.3538 8.9522 90.517 9.83738 89.9085 10.8749C89.2228 12.0852 88.8665 13.4541 88.8749 14.8452C88.8564 15.8662 89.0487 16.88 89.4399 17.8232C89.8311 18.7665 90.4127 19.6188 91.1484 20.327C91.8775 21.0642 92.749 21.6454 93.7099 22.035C94.6707 22.4247 95.7009 22.6147 96.7375 22.5936C98.284 22.5869 99.794 22.1235 101.078 21.2615C102.362 20.3995 103.363 19.1774 103.954 17.7487C104.546 16.3199 104.703 14.7481 104.404 13.2307C104.106 11.7134 103.365 10.318 102.276 9.21984L102.276 9.22471ZM102.191 18.0075C101.646 18.9672 100.85 19.7604 99.8887 20.302C98.9124 20.8611 97.8055 21.1516 96.6804 21.1441C95.8536 21.1466 95.0345 20.985 94.2705 20.6688C93.5066 20.3525 92.8129 19.8877 92.2299 19.3015C91.6468 18.7152 91.1858 18.0191 90.8737 17.2534C90.5615 16.4878 90.4045 15.6678 90.4115 14.841C90.3962 13.7033 90.6822 12.5817 91.2404 11.5902C91.6498 10.8665 92.1991 10.2316 92.8564 9.7224C93.5137 9.21321 94.2658 8.83994 95.0688 8.62437C95.8718 8.4088 96.7097 8.35525 97.5336 8.46681C98.3576 8.57838 99.151 8.85283 99.8678 9.27418C100.841 9.82029 101.647 10.6197 102.202 11.5875C102.757 12.5552 103.04 13.6552 103.02 14.7706C103.033 15.9039 102.747 17.0207 102.191 18.0082V18.0075ZM118.533 18.0075V18.0507C118.539 18.6601 118.41 19.2633 118.156 19.8172C117.902 20.3711 117.529 20.862 117.063 21.2548C115.997 22.1213 114.652 22.5693 113.28 22.5149C112.194 22.5235 111.119 22.3052 110.123 21.8741C109.145 21.4394 108.257 20.8235 107.508 20.0589L108.589 19.014C109.193 19.6505 109.92 20.1568 110.727 20.502C111.534 20.8472 112.402 21.024 113.28 21.0215C115.509 21.0215 117.02 19.8255 117.02 18.0535V18.0103C117.045 17.6841 116.992 17.3565 116.864 17.0554C116.736 16.7542 116.537 16.4883 116.285 16.2801C115.309 15.6282 114.202 15.1981 113.042 15.02C111.734 14.8324 110.485 14.3506 109.389 13.6109C108.998 13.3023 108.686 12.9049 108.479 12.4517C108.273 11.9986 108.177 11.5027 108.2 11.0051V10.9626C108.195 10.4367 108.314 9.91704 108.548 9.44621C108.775 8.96477 109.099 8.53568 109.5 8.18616C110.435 7.43218 111.606 7.03147 112.808 7.05426C113.686 7.06339 114.556 7.22241 115.38 7.52445C116.159 7.83251 116.888 8.25739 117.539 8.7845L116.589 9.93729C115.523 9.05518 114.188 8.56516 112.805 8.54906C111.974 8.52279 111.161 8.79457 110.513 9.31527C110.268 9.51426 110.069 9.76475 109.931 10.049C109.792 10.3333 109.718 10.6445 109.714 10.9605V11.003C109.688 11.2751 109.733 11.5492 109.842 11.7995C109.952 12.0499 110.123 12.2683 110.34 12.4344C111.263 13.0268 112.303 13.4129 113.389 13.5663C114.792 13.7829 116.124 14.3242 117.28 15.1468C117.696 15.4944 118.025 15.9335 118.242 16.4297C118.46 16.9259 118.559 17.4657 118.533 18.0068L118.533 18.0075ZM84.3842 10.5091C83.5869 9.27402 82.3927 8.34735 80.9983 7.88178C79.4213 7.44998 77.7864 7.26829 76.1531 7.34334H73.068V22.2244H77.8046C79.2906 22.2988 80.7732 22.022 82.1322 21.4164C83.1949 20.8432 84.0665 19.9715 84.6398 18.9089C85.3006 17.7032 85.6328 16.3451 85.6032 14.9705C85.6464 13.3957 85.2222 11.8433 84.3842 10.5091ZM83.1304 18.4638C82.5012 19.4038 81.5683 20.0992 80.4877 20.4336C79.0853 20.7512 77.6467 20.8796 76.2102 20.8153H74.489V8.79983H75.5443C77.0911 8.73753 78.6393 8.88064 80.1485 9.22541C81.3325 9.55833 82.3611 10.2983 83.0531 11.3151C83.7696 12.4045 84.1331 13.6881 84.0944 14.9914C84.1309 16.2187 83.7951 17.4282 83.1311 18.461L83.1304 18.4638ZM40.7105 11.586C40.1454 12.5728 39.8566 13.6936 39.8746 14.8306C39.853 15.6757 40.0082 16.5161 40.3303 17.2978C40.6523 18.0795 41.1341 18.7853 41.7449 19.37C42.368 19.9733 43.1059 20.4453 43.9149 20.7581C44.7238 21.0708 45.5874 21.218 46.4543 21.1908C47.4543 21.2044 48.4444 20.9909 49.3499 20.5663C50.2554 20.1417 51.0528 19.5171 51.6818 18.7396L52.8577 19.6319C52.1205 20.5729 51.1684 21.3234 50.0812 21.8204C48.9135 22.3482 47.6436 22.6118 46.3623 22.5922C45.2062 22.6472 44.0524 22.4422 42.9859 21.9923C41.9194 21.5424 40.9674 20.8591 40.2 19.9927C38.9368 18.521 38.2633 16.6336 38.3095 14.6947C38.2875 13.6692 38.4803 12.6504 38.8755 11.7039C39.2706 10.7573 39.8594 9.9038 40.6039 9.19825C41.3623 8.46175 42.2609 7.88498 43.2463 7.50211C44.2318 7.11923 45.284 6.93803 46.3407 6.96928C47.641 6.95071 48.9281 7.23197 50.1021 7.79122C51.1976 8.32408 52.1443 9.11972 52.8577 10.1072L51.6818 11.0065C51.0678 10.1914 50.2694 9.53355 49.3519 9.0868C48.4177 8.64585 47.3953 8.42338 46.3623 8.43623C45.2061 8.42658 44.0678 8.72185 43.062 9.29229C42.0857 9.82959 41.2731 10.6213 40.7105 11.5832V11.586ZM67.7889 7.34334H69.2335V16.2905C69.2335 17.9548 68.5724 19.5509 67.3956 20.7278C66.2187 21.9046 64.6226 22.5657 62.9583 22.5657C61.294 22.5657 59.6979 21.9046 58.5211 20.7278C57.3443 19.5509 56.6831 17.9548 56.6831 16.2905V7.34055H58.1208V16.2905C58.1208 17.5726 58.6301 18.8022 59.5367 19.7087C60.4432 20.6153 61.6728 21.1246 62.9548 21.1246C64.2369 21.1246 65.4665 20.6153 66.373 19.7087C67.2796 18.8022 67.7889 17.5726 67.7889 16.2905V7.34334Z" fill="#F6F9FE"/>
</g>
<g clip-path="url(#clip1_4570_2513)">
<path d="M23.8957 4.10535C21.6057 1.81949 18.5941 0.398275 15.3739 0.0838132C12.1536 -0.230649 8.92398 0.581091 6.23508 2.38076C3.54618 4.18042 1.56437 6.8567 0.62726 9.95365C-0.30985 13.0506 -0.144293 16.3767 1.09573 19.3652C2.33575 22.3538 4.57352 24.8201 7.42784 26.3438C10.2822 27.8675 13.5765 28.3545 16.7496 27.7218C19.9227 27.0891 22.7783 25.3758 24.8299 22.8738C26.8816 20.3719 28.0023 17.236 28.0013 14.0003C27.9971 10.2884 26.5206 6.72982 23.8957 4.10535ZM13.2759 26.5243C10.0865 26.3293 7.09161 24.9248 4.90218 22.5973C2.71276 20.2698 1.49374 17.1947 1.49374 13.9993C1.49374 10.8038 2.71276 7.72876 4.90218 5.40129C7.09161 3.07382 10.0865 1.66929 13.2759 1.47423V6.22229C11.3374 6.4017 9.53568 7.29868 8.22403 8.73737C6.91237 10.1761 6.1853 12.0527 6.1853 13.9996C6.1853 15.9465 6.91237 17.8232 8.22403 19.2619C9.53568 20.7006 11.3374 21.5975 13.2759 21.7769V26.5243ZM14.0003 20.3634C12.5262 20.3647 11.0973 19.8547 9.95706 18.9204C8.81686 17.9861 8.03596 16.6852 7.74746 15.2396C7.45897 13.794 7.68076 12.293 8.37499 10.9926C9.06922 9.6922 10.1929 8.67281 11.5546 8.10817C12.9163 7.54353 14.4316 7.4686 15.8424 7.89616C17.2531 8.32373 18.4719 9.2273 19.291 10.4529C20.1101 11.6785 20.4789 13.1503 20.3344 14.6173C20.1899 16.0843 19.5411 17.4558 18.4986 18.4981C17.306 19.6916 15.6882 20.3625 14.001 20.3634H14.0003ZM23.1191 22.6072C20.9235 24.9355 17.9214 26.337 14.7267 26.525V21.7769C16.6653 21.5975 18.4669 20.7006 19.7786 19.2619C21.0903 17.8232 21.8173 15.9465 21.8173 13.9996C21.8173 12.0527 21.0903 10.1761 19.7786 8.73737C18.4669 7.29868 16.6653 6.4017 14.7267 6.22229V1.47423C17.1096 1.61503 19.4029 2.43263 21.3375 3.83103C23.2721 5.22944 24.7676 7.15066 25.6487 9.36921C26.5298 11.5878 26.7598 14.0116 26.3117 16.3563C25.8636 18.701 24.7561 20.8692 23.1191 22.6065V22.6072Z" fill="url(#paint0_linear_4570_2513)"/>
</g>
<defs>
<linearGradient id="paint0_linear_4570_2513" x1="4.11191" y1="23.9076" x2="23.8897" y2="4.1303" gradientUnits="userSpaceOnUse">
<stop offset="0.005" stop-color="#4E9DF7"/>
<stop offset="0.996" stop-color="#6CD8F9"/>
<stop offset="1" stop-color="#6DD9FA"/>
</linearGradient>
<clipPath id="clip0_4570_2513">
<rect width="80.2231" height="15.6327" fill="white" transform="translate(38.3102 6.96558)"/>
</clipPath>
<clipPath id="clip1_4570_2513">
<rect width="28" height="28" fill="white"/>
</clipPath>
</defs>
</svg>
